<svg width="363" height="352" viewBox="0 0 363 352" fill="none" xmlns="http://www.w3.org/2000/svg">
    <path d="M1.8559 349.754L12.2674 280.756L78.1779 257.243L68.7128 326.147L1.8559 349.754Z" stroke="#C6913B" stroke-width="3"/>
    <path d="M95.8559 315.754L106.267 246.756L172.178 223.243L162.713 292.147L95.8559 315.754Z" stroke="#C6913B" stroke-width="3"/>
    <path d="M189.856 281.754L200.267 212.756L266.178 189.243L256.713 258.147L189.856 281.754Z" stroke="#C6913B" stroke-width="3"/>
    <path d="M284.856 252.754L295.267 183.756L361.178 160.243L351.713 229.147L284.856 252.754Z" stroke="#C6913B" stroke-width="3"/>
    <path d="M22.2367 254.501L30.0886 202.287L79.7858 184.497L72.6477 236.64L22.2367 254.501Z" stroke="#C6913B" stroke-opacity="0.9" stroke-width="2"/>
    <path d="M91.2367 230.501L99.0886 178.287L148.786 160.497L141.648 212.64L91.2367 230.501Z" stroke="#C6913B" stroke-opacity="0.9" stroke-width="2"/>
    <path d="M160.237 206.501L168.089 154.287L217.786 136.497L210.648 188.64L160.237 206.501Z" stroke="#C6913B" stroke-opacity="0.9" stroke-width="2"/>
    <path d="M229.237 182.501L237.089 130.287L286.786 112.497L279.648 164.64L229.237 182.501Z" stroke="#C6913B" stroke-opacity="0.9" stroke-width="2"/>
    <path d="M32.082 186.688L38.0655 146.875L75.9376 133.31L70.4981 173.069L32.082 186.688Z" stroke="#C6913B" stroke-opacity="0.8" stroke-width="1.75"/>
    <path d="M85.082 167.688L91.0655 127.875L128.938 114.31L123.498 154.069L85.082 167.688Z" stroke="#C6913B" stroke-opacity="0.8" stroke-width="1.75"/>
    <path d="M138.082 148.688L144.065 108.875L181.938 95.31L176.498 135.069L138.082 148.688Z" stroke="#C6913B" stroke-opacity="0.8" stroke-width="1.75"/>
    <path d="M191.082 129.688L197.065 89.875L234.938 76.31L229.498 116.069L191.082 129.688Z" stroke="#C6913B" stroke-opacity="0.8" stroke-width="1.75"/>
    <path d="M41.9287 128.879L46.3143 99.9733L74.0883 90.1193L70.1013 118.986L41.9287 128.879Z" stroke="#C6913B" stroke-opacity="0.8" stroke-width="1.5"/>
    <path d="M80.9287 114.879L85.3143 85.9733L113.088 76.1193L109.101 104.986L80.9287 114.879Z" stroke="#C6913B" stroke-opacity="0.8" stroke-width="1.5"/>
    <path d="M120.929 100.879L125.314 71.9733L153.088 62.1193L149.101 90.9857L120.929 100.879Z" stroke="#C6913B" stroke-opacity="0.8" stroke-width="1.5"/>
    <path d="M159.929 87.879L164.314 58.9733L192.088 49.1193L188.101 77.9857L159.929 87.879Z" stroke="#C6913B" stroke-opacity="0.8" stroke-width="1.5"/>
    <path d="M51.6189 84.2522L54.725 63.7387L74.3923 56.7467L71.5687 77.2322L51.6189 84.2522Z" stroke="#C6913B" stroke-opacity="0.7"/>
    <path d="M79.6189 74.2522L82.725 53.7387L102.392 46.7467L99.5687 67.2322L79.6189 74.2522Z" stroke="#C6913B" stroke-opacity="0.7"/>
    <path d="M107.619 64.2522L110.725 43.7387L130.392 36.7467L127.569 57.2322L107.619 64.2522Z" stroke="#C6913B" stroke-opacity="0.7"/>
    <path d="M136.619 54.2522L139.725 33.7387L159.392 26.7467L156.569 47.2322L136.619 54.2522Z" stroke="#C6913B" stroke-opacity="0.7"/>
    <path d="M58.466 52.444L60.656 38.3619L74.5427 33.5551L72.5518 47.6181L58.466 52.444Z" stroke="#C6913B" stroke-opacity="0.6" stroke-width="0.75"/>
    <path d="M78.466 45.444L80.656 31.3619L94.5427 26.5551L92.5518 40.6181L78.466 45.444Z" stroke="#C6913B" stroke-opacity="0.6" stroke-width="0.75"/>
    <path d="M98.466 38.444L100.656 24.3619L114.543 19.5551L112.552 33.6181L98.466 38.444Z" stroke="#C6913B" stroke-opacity="0.6" stroke-width="0.75"/>
    <path d="M118.466 31.444L120.656 17.3619L134.543 12.5551L132.552 26.6181L118.466 31.444Z" stroke="#C6913B" stroke-opacity="0.6" stroke-width="0.75"/>
    <path d="M63.308 29.6218L64.8635 18.9943L74.6975 15.3776L73.2834 25.9907L63.308 29.6218Z" stroke="#C6913B" stroke-opacity="0.5" stroke-width="0.5"/>
    <path d="M78.308 24.6218L79.8635 13.9943L89.6975 10.3776L88.2834 20.9907L78.308 24.6218Z" stroke="#C6913B" stroke-opacity="0.5" stroke-width="0.5"/>
    <path d="M93.308 19.6218L94.8635 8.99429L104.697 5.37763L103.283 15.9907L93.308 19.6218Z" stroke="#C6913B" stroke-opacity="0.5" stroke-width="0.5"/>
    <path d="M108.308 14.6218L109.864 3.99429L119.697 0.377633L118.283 10.9907L108.308 14.6218Z" stroke="#C6913B" stroke-opacity="0.5" stroke-width="0.5"/>
</svg>
