<svg width="16" height="16" viewBox="0 0 16 16" fill="none" xmlns="http://www.w3.org/2000/svg">
    <g clip-path="url(#clip0)">
        <path d="M15.9844 4.70294C15.9468 3.85127 15.809 3.26889 15.6118 2.76164C15.4083 2.22309 15.0952 1.74403 14.6881 1.34325C14.2873 0.936204 13.802 0.619961 13.2728 0.422701C12.7625 0.22544 12.1832 0.0876713 11.3316 0.0500979C10.4736 0.00939335 10.2012 0 8.02823 0C5.85523 0 5.58283 0.00939335 4.73116 0.0469667C3.8795 0.0845402 3.29711 0.222309 2.78987 0.41957C2.25445 0.623092 1.77226 0.933073 1.37148 1.34325C0.964432 1.74403 0.64819 2.22935 0.450929 2.75851C0.253669 3.26889 0.1159 3.84814 0.0783266 4.69981C0.0376221 5.55773 0.0282288 5.82701 0.0282288 8C0.0282288 10.173 0.0376221 10.4454 0.0751955 11.2971C0.112769 12.1487 0.250538 12.7311 0.447798 13.2384C0.651321 13.7769 0.967563 14.256 1.37148 14.6568C1.77226 15.0638 2.25758 15.38 2.78674 15.5773C3.29711 15.7746 3.87637 15.9123 4.72803 15.9499C5.5797 15.9875 5.8521 15.9969 8.0251 15.9969C10.1981 15.9969 10.4705 15.9875 11.3222 15.9499C12.1738 15.9123 12.7562 15.7746 13.2635 15.5773C14.3374 15.1609 15.1891 14.3123 15.6055 13.2352C15.8028 12.7249 15.9406 12.1456 15.9781 11.2939C16.0157 10.4391 16.0251 10.1699 16.0251 7.99687C16.0251 5.82388 16.022 5.55773 15.9844 4.70294Z" fill="black"/>
        <path d="M8.02811 3.89209C5.75806 3.89209 3.91696 5.73319 3.91696 8.00324C3.91696 10.2733 5.76119 12.1113 8.02811 12.1113C10.2982 12.1113 12.1393 10.2702 12.1393 8.00011C12.1393 5.73005 10.2982 3.89209 8.02811 3.89209ZM8.02811 10.6678C6.55649 10.6678 5.36041 9.47487 5.36041 8.00011C5.36041 6.52536 6.55336 5.3324 8.02811 5.3324C9.49974 5.3324 10.6958 6.52536 10.6958 8.00011C10.6958 9.47487 9.50287 10.6678 8.02811 10.6678Z" fill="white"/>
        <path d="M13.2634 3.72913C13.2634 4.25829 12.8344 4.68725 12.3053 4.68725C11.7761 4.68725 11.3471 4.25829 11.3471 3.72913C11.3471 3.19998 11.7761 2.77101 12.3053 2.77101C12.8313 2.76788 13.2634 3.19998 13.2634 3.72913Z" fill="white"/>
    </g>
    <defs>
        <clipPath id="clip0">
            <rect width="16" height="16" fill="white"/>
        </clipPath>
    </defs>
</svg>
