<svg width="18" height="18" viewBox="0 0 18 18" fill="#fff" xmlns="http://www.w3.org/2000/svg">
    <g clip-path="url(#clip0)">
        <path d="M8.99998 9.68921C8.48319 9.68921 8.06409 10.1081 8.06409 10.6251C8.06409 10.9717 8.25303 11.2735 8.53311 11.4354V12.4759H9.46685V11.4354C9.74693 11.2736 9.93588 10.9717 9.93588 10.6251C9.93588 10.1081 9.51683 9.68921 8.99998 9.68921Z" fill="#3B73C6"/>
        <path d="M9.00038 5.151C8.2137 5.151 7.57385 5.79091 7.57385 6.57753V8.09669H10.4268V6.57753C10.4267 5.79103 9.78687 5.151 9.00038 5.151Z" fill="#3B73C6"/>
        <path d="M8.99985 0.000976562C4.02943 0.000976562 0 4.03052 0 9.00094C0 13.9712 4.02943 18.0009 8.99985 18.0009C13.9703 18.0009 18 13.9712 18 9.00094C18 4.03052 13.9703 0.000976562 8.99985 0.000976562ZM11.7653 13.6282H6.23482C5.65077 13.6282 5.17725 13.1547 5.17725 12.5705V9.15526C5.17725 8.6458 5.53767 8.22033 6.01744 8.12025V6.5784C6.01744 4.93384 7.35546 3.5957 9.00015 3.5957C10.6447 3.5957 11.9827 4.93372 11.9827 6.5784V8.12025C12.4623 8.22063 12.8228 8.6458 12.8228 9.15526V12.5705H12.8229C12.8229 13.1546 12.3493 13.6282 11.7653 13.6282Z" fill="#3B73C6"/>
    </g>
    <defs>
        <clipPath id="clip0">
            <rect width="18" height="18" fill="white"/>
        </clipPath>
    </defs>
</svg>
