<svg width="15" height="15" viewBox="0 0 15 15" fill="none" xmlns="http://www.w3.org/2000/svg">
    <path d="M3.90233 2.17288C3.99565 2.17288 4.08437 2.11796 4.12296 2.02659C4.17437 1.9048 4.11734 1.76441 3.99559 1.71296L3.3135 1.42493C3.19171 1.37348 3.05131 1.43055 2.99987 1.5523C2.94845 1.67409 3.00548 1.81448 3.12724 1.86593L3.80933 2.15396C3.83974 2.16682 3.87128 2.17288 3.90233 2.17288Z" fill="white"/>
    <path d="M13.8447 2.81218H12.9389C13.2391 2.51394 13.4253 2.10105 13.4253 1.64544C13.4253 0.73816 12.6872 0 11.7798 0C11.5457 0 11.3185 0.0486383 11.1042 0.144734L9.72797 0.765223L8.68965 1.2337V1.15107C8.68965 1.01888 8.58248 0.911713 8.45029 0.911713H6.54982C6.41763 0.911713 6.31046 1.01888 6.31046 1.15107V1.23373L3.89546 0.144511C3.68157 0.0486383 3.4544 0 3.22027 0C2.31296 0 1.5748 0.738159 1.5748 1.64547C1.5748 2.10108 1.76103 2.51394 2.06125 2.81221H1.15538C1.02319 2.81221 0.916016 2.91938 0.916016 3.05157V5.34278C0.916016 5.47497 1.02319 5.58214 1.15538 5.58214H1.27902V14.7606C1.27902 14.8928 1.38619 15 1.51838 15H13.4818C13.614 15 13.7211 14.8928 13.7211 14.7606V5.58211H13.8448C13.977 5.58211 14.0841 5.47494 14.0841 5.34274V3.05154C14.0841 2.91935 13.9769 2.81218 13.8447 2.81218ZM8.45029 12.6064C8.3181 12.6064 8.21093 12.7136 8.21093 12.8457V14.5213H6.78919V5.58211H8.21093V11.8883C8.21093 12.0205 8.3181 12.1277 8.45029 12.1277C8.58248 12.1277 8.68965 12.0205 8.68965 11.8883V5.58211H13.2424V14.5213H8.68965V12.8457C8.68965 12.7136 8.58248 12.6064 8.45029 12.6064ZM2.05353 1.64547C2.05353 1.00213 2.57693 0.478723 3.22027 0.478723C3.38645 0.478723 3.54772 0.513255 3.69915 0.58117C4.48455 0.935234 5.86969 1.55974 6.31046 1.75883V2.69065L4.87752 2.08551C4.75573 2.03406 4.61533 2.09113 4.56389 2.21288C4.51247 2.33467 4.5695 2.47506 4.69126 2.52651L5.36776 2.81221H3.22027C2.57693 2.81218 2.05353 2.28881 2.05353 1.64547ZM12.9466 1.64547C12.9466 2.28881 12.4232 2.81221 11.7798 2.81221H9.63236L11.873 1.866C11.9947 1.81455 12.0518 1.67416 12.0003 1.55237C11.9489 1.43059 11.8085 1.37352 11.6867 1.425L8.68965 2.69068V1.7588C9.13043 1.55974 10.5155 0.935234 11.3005 0.58133C11.4524 0.513255 11.6137 0.478723 11.7798 0.478723C12.4232 0.478723 12.9466 1.00213 12.9466 1.64547ZM13.6054 5.10338H9.0088V3.2909H13.6054V5.10338ZM6.78919 1.61464C6.7897 1.60586 6.78973 1.5967 6.78919 1.58719V1.39044H8.21093V1.58719C8.21039 1.5967 8.21042 1.60586 8.21093 1.61464V2.81218H6.78919V1.61464ZM6.54845 3.2909C6.55056 3.2909 8.44956 3.2909 8.44956 3.2909C8.45166 3.2909 8.53008 3.2909 8.53008 3.2909V5.10338H6.47004V3.2909H6.54845ZM5.99131 3.2909V5.10338H1.39474V3.2909H5.99131ZM1.75774 5.58211H6.31046V14.5213H1.75774V5.58211Z" fill="white"/>
</svg>
