<svg width="20" height="12" viewBox="0 0 20 12" fill="none" xmlns="http://www.w3.org/2000/svg">
    <path d="M9.78601 11.6574H10.9811C10.9811 11.6574 11.3424 11.6174 11.5261 11.4186C11.6962 11.2361 11.6899 10.8936 11.6899 10.8936C11.6899 10.8936 11.6661 9.28972 12.4112 9.05345C13.145 8.82093 14.0876 10.6036 15.0864 11.2899C15.8415 11.8087 16.4153 11.6949 16.4153 11.6949L19.0867 11.6574C19.0867 11.6574 20.4843 11.5711 19.8218 10.4723C19.768 10.3823 19.4355 9.65975 17.8354 8.17464C16.1602 6.61952 16.3853 6.87204 18.4029 4.18309C19.6317 2.54547 20.123 1.54539 19.9693 1.11786C19.823 0.710332 18.9192 0.81784 18.9192 0.81784L15.914 0.835341C15.914 0.835341 15.6914 0.805339 15.5252 0.904097C15.3639 1.0016 15.2602 1.22662 15.2602 1.22662C15.2602 1.22662 14.7839 2.49421 14.1488 3.57179C12.81 5.84571 12.2737 5.96572 12.0549 5.82446C11.5461 5.49569 11.6736 4.50186 11.6736 3.79681C11.6736 1.5929 12.0074 0.674079 11.0224 0.436562C10.6948 0.357806 10.4548 0.305302 9.61849 0.296551C8.54592 0.285301 7.6371 0.300302 7.12331 0.55157C6.78078 0.719083 6.51701 1.09286 6.67828 1.11411C6.87704 1.14036 7.32707 1.23537 7.56584 1.5604C7.87462 1.97918 7.86336 2.92175 7.86336 2.92175C7.86336 2.92175 8.04088 5.51569 7.44958 5.83821C7.0433 6.05948 6.48701 5.6082 5.29317 3.54429C4.68188 2.48796 4.21934 1.31913 4.21934 1.31913C4.21934 1.31913 4.13059 1.10161 3.97182 0.985353C3.77931 0.844092 3.50929 0.799089 3.50929 0.799089L0.651578 0.81659C0.651578 0.81659 0.222796 0.829091 0.0652839 1.01536C-0.0747265 1.18162 0.0540331 1.52414 0.0540331 1.52414C0.0540331 1.52414 2.2917 6.75828 4.82439 9.39723C7.14831 11.8162 9.78601 11.6574 9.78601 11.6574Z" fill="black"/>
</svg>
